<svg viewBox="0 0 54 66" xmlns="http://www.w3.org/2000/svg" xmlns:xlink="http://www.w3.org/1999/xlink"><defs><path d="M.5 9.64V64h43.164l7.836-7.836V0H10.14C4.818 0 .5 4.316.5 9.64zm19.29 39.975l-5.778 7.02-.69.84-.78-.76L9.237 53.5l-.698-.677.66-.716 1.252-1.362.696-.755.735.715L13.01 51.8l3.84-4.667.654-.793.775.673 1.39 1.21.736.64-.62.752h.003zm23.67 4.516H22.575v-1H43.46v1zm0-3.505H22.575v-1H43.46v1zm0-9.202H22.575v-1H43.46v1zm0-3.507H22.575v-1H43.46v1zm-7.335-15.73v5.737h-9.89l4.827-10.463s5.063.067 5.063 4.724zM26 24.638l-3.013-6.67h6.026L26 24.64v-.002zm0-18.32a4.994 4.994 0 0 1 4.995 4.995A4.995 4.995 0 1 1 26 6.32v-.002zM15.875 22.182c0-4.658 5.063-4.725 5.063-4.725l4.826 10.463h-9.89v-5.738zM11.15 37.28l.736.715 1.125 1.094 3.84-4.67.656-.792.775.672 1.394 1.21.735.64-.62.752-5.777 7.02-.69.84-.78-.76-3.305-3.214-.698-.678.66-.716 1.253-1.362.696-.755z" id="a"/><mask id="b" x="-1" y="-1" width="53" height="66"><path fill="#fff" d="M-.5-1h53v66h-53z"/><use xlink:href="#a"/></mask></defs><g transform="translate(1 1)" fill="none" fill-rule="evenodd"><path d="M20.324 18.515c-1.166.175-3.45.874-3.45 3.667v4.738H24.2l-3.875-8.405zM19.017 36.27l-1.394-1.21-4.53 5.504-1.904-1.852-1.258 1.362 3.306 3.216 5.777-7.02z"/><circle cx="26" cy="11.315" r="3.995"/><path d="M26 18.97h-1.464L26 22.21l1.464-3.24H26zm9.125 7.95v-4.738c0-2.794-2.283-3.493-3.45-3.667L27.8 26.92h7.325zM13.093 53.274l-1.904-1.852-1.258 1.362L13.24 56l5.777-7.02-1.394-1.21-4.53 5.504z"/><use stroke="#000" mask="url(#b)" stroke-width="2" xlink:href="#a"/></g></svg>